<svg xmlns="http://www.w3.org/2000/svg" xmlns:xlink="http://www.w3.org/1999/xlink" width="72" zoomAndPan="magnify" viewBox="0 0 54 54" height="72" preserveAspectRatio="xMidYMid meet" version="1.0"><defs><clipPath id="2848a2ca0e"><path d="M 16.246094 15.90625 L 37.601562 15.90625 L 37.601562 37.261719 L 16.246094 37.261719 Z M 16.246094 15.90625 " clip-rule="nonzero"/></clipPath></defs><g clip-path="url(#2848a2ca0e)"><path fill="#ff5aa0" d="M 26.925781 37.257812 C 21.738281 37.257812 17.414062 33.5625 16.449219 28.65625 C 16.316406 27.988281 16.246094 27.292969 16.246094 26.582031 C 16.246094 20.6875 21.027344 15.90625 26.925781 15.90625 C 32.820312 15.90625 37.601562 20.6875 37.601562 26.582031 C 37.601562 32.480469 33.046875 37.03125 27.34375 37.25 C 27.203125 37.257812 27.066406 37.257812 26.925781 37.257812 Z M 26.925781 37.257812 " fill-opacity="1" fill-rule="nonzero"/></g><path fill="#ffffff" d="M 29.550781 26.632812 L 24.300781 26.632812 C 23.390625 26.632812 22.871094 27.671875 23.417969 28.398438 L 26.042969 31.882812 C 26.484375 32.46875 27.363281 32.46875 27.804688 31.882812 L 30.429688 28.398438 C 30.976562 27.671875 30.460938 26.632812 29.550781 26.632812 Z M 29.550781 26.632812 " fill-opacity="1" fill-rule="nonzero"/><path fill="#ffffff" d="M 27.972656 22.628906 L 27.972656 26.972656 C 27.972656 27.113281 27.945312 27.246094 27.890625 27.375 C 27.839844 27.503906 27.761719 27.617188 27.664062 27.714844 C 27.566406 27.8125 27.453125 27.886719 27.324219 27.941406 C 27.195312 27.992188 27.0625 28.019531 26.925781 28.019531 C 26.785156 28.019531 26.652344 27.992188 26.523438 27.941406 C 26.394531 27.886719 26.28125 27.8125 26.183594 27.714844 C 26.085938 27.617188 26.011719 27.503906 25.957031 27.375 C 25.90625 27.246094 25.878906 27.113281 25.878906 26.972656 L 25.878906 22.628906 C 25.878906 22.488281 25.90625 22.355469 25.957031 22.226562 C 26.011719 22.097656 26.085938 21.984375 26.183594 21.886719 C 26.28125 21.789062 26.394531 21.714844 26.523438 21.660156 C 26.652344 21.609375 26.785156 21.582031 26.925781 21.582031 C 27.0625 21.582031 27.195312 21.609375 27.324219 21.660156 C 27.453125 21.714844 27.566406 21.789062 27.664062 21.886719 C 27.761719 21.984375 27.839844 22.097656 27.890625 22.226562 C 27.945312 22.355469 27.972656 22.488281 27.972656 22.628906 Z M 27.972656 22.628906 " fill-opacity="1" fill-rule="nonzero"/></svg>